<svg version="1.1" viewBox="0.0 0.0 288.0 288.0" fill="none" stroke="none" stroke-linecap="square" stroke-miterlimit="10" xmlns:xlink="http://www.w3.org/1999/xlink" xmlns="http://www.w3.org/2000/svg"><clipPath id="p.0"><path d="m0 0l288.0 0l0 288.0l-288.0 0l0 -288.0z" clip-rule="nonzero"/></clipPath><g clip-path="url(#p.0)"><path fill="#000000" fill-opacity="0.0" d="m0 0l288.0 0l0 288.0l-288.0 0z" fill-rule="evenodd"/><path fill="#0095b6" d="m96.04724 -2.8897638l86.54855 290.6588l108.93176 -0.17062378l-0.4881897 -289.98688z" fill-rule="evenodd"/><path fill="#000000" fill-opacity="0.0" d="m0 101.480316l288.0 0l0 91.52756l-288.0 0z" fill-rule="evenodd"/><path fill="#0095b6" d="m65.59595 151.80719l0 11.609375q0 5.421875 -1.390625 6.796875q-1.390625 1.375 -3.59375 1.375q-1.625 0 -2.90625 -0.921875q-1.265625 -0.9375 -1.59375 -2.296875q-0.3125 -1.359375 -0.3125 -4.953125l0 -33.0625q0 -4.15625 0.5625 -5.671875q0.578125 -1.53125 2.046875 -2.0625q1.484375 -0.53125 4.40625 -0.53125l11.875 0q10.625 0 14.390625 4.125q3.78125 4.109375 3.78125 10.21875q0 15.375 -18.171875 15.375l-9.09375 0zm6.703125 -22.125l-6.703125 0l0 14.484375l6.703125 0q6.109375 0 8.328125 -1.953125q2.234375 -1.96875 2.234375 -5.328125q0 -2.390625 -1.25 -4.25q-1.234375 -1.859375 -3.328125 -2.40625q-2.09375 -0.546875 -5.984375 -0.546875zm51.64453 29.59375l-19.734375 0l-2.28125 6.109375q-1.4375 3.75 -2.40625 4.984375q-0.953125 1.21875 -3.109375 1.21875q-2.0 0 -3.359375 -1.375q-1.359375 -1.375 -1.359375 -2.96875q0 -1.703125 1.359375 -5.125l12.515625 -31.609375q1.671875 -4.28125 2.453125 -5.765625q0.78125 -1.5 2.390625 -2.484375q1.609375 -1.0 3.59375 -1.0q2.359375 0 4.125 1.25q1.78125 1.234375 2.8125 3.796875l14.421875 35.546875q1.421875 3.625 1.421875 5.21875q0 1.65625 -1.375 3.09375q-1.375 1.421875 -3.4375 1.421875q-2.1875 0 -3.15625 -1.234375q-0.96875 -1.25 -2.484375 -5.109375l-2.390625 -5.96875zm-17.203125 -7.609375l14.609375 0l-7.40625 -20.015625l-7.203125 20.015625z" fill-rule="nonzero"/><path fill="#ffffff" d="m168.98413 160.36969l11.046875 -32.875q1.265625 -3.625 2.21875 -4.921875q0.96875 -1.3125 3.296875 -1.3125q1.859375 0 3.25 1.359375q1.40625 1.359375 1.40625 2.984375q0 1.265625 -1.375 4.984375l-11.71875 31.796875q-1.515625 4.21875 -2.296875 5.734375q-0.78125 1.515625 -2.359375 2.5q-1.578125 0.96875 -3.609375 0.96875q-2.09375 0 -3.671875 -0.953125q-1.578125 -0.96875 -2.375 -2.515625q-0.796875 -1.546875 -2.3125 -5.734375l-11.59375 -31.53125q-1.421875 -3.796875 -1.421875 -5.046875q0 -1.734375 1.40625 -3.140625q1.40625 -1.40625 3.4375 -1.40625q2.390625 0 3.375 1.359375q1.0 1.359375 2.265625 5.109375l11.03125 32.640625zm38.408203 -30.6875l0 11.890625l18.828125 0q2.390625 0 3.421875 0.21875q1.03125 0.21875 1.890625 1.203125q0.859375 0.96875 0.859375 2.328125q0 1.171875 -1.0 2.53125q-0.984375 1.359375 -5.171875 1.359375l-18.828125 0l0 13.9375l21.28125 0q2.859375 0 3.875 0.1875q1.015625 0.1875 1.796875 1.1875q0.78125 0.984375 0.78125 2.34375q0 1.359375 -0.828125 2.390625q-0.8125 1.03125 -1.9375 1.265625q-1.125 0.234375 -3.6875 0.234375l-22.84375 0q-5.28125 0 -6.109375 -0.765625q-0.828125 -0.765625 -1.484375 -1.6875q-0.640625 -0.9375 -0.640625 -5.78125l0 -32.171875q0 -5.3125 0.765625 -6.078125q0.765625 -0.765625 1.6875 -1.46875q0.9375 -0.71875 5.78125 -0.71875l22.078125 0q2.625 0 3.65625 0.203125q1.03125 0.1875 1.859375 1.171875q0.828125 0.984375 0.828125 2.40625q0 1.390625 -0.8125 2.40625q-0.8125 1.015625 -1.875 1.21875q-1.0625 0.1875 -3.65625 0.1875l-20.515625 0zm3.796875 -14.078125l1.21875 -2.328125q1.40625 -2.65625 2.4375 -3.203125q1.046875 -0.546875 3.96875 -0.546875l3.328125 0q1.625 0 1.625 0.5q0 0.53125 -3.46875 3.71875q-3.46875 3.1875 -4.96875 4.15625q-1.484375 0.953125 -4.015625 0.953125q-1.265625 0 -1.265625 -0.828125q0 -0.265625 1.140625 -2.421875z" fill-rule="nonzero"/><path fill="#000000" fill-opacity="0.0" d="m169.66873 118.284355l0 0c0.27682495 -18.874367 8.350296 -36.084618 21.115967 -45.012978c12.7656555 -8.928368 28.235794 -8.184631 40.46176 1.945221c12.225952 10.129852 19.304062 28.068527 18.512589 46.91815l-40.01889 -2.8526306z" fill-rule="evenodd"/><path fill="#000000" fill-opacity="0.0" d="m169.66873 118.284355l0 0c0.27682495 -18.874367 8.350296 -36.084618 21.115967 -45.012978c12.7656555 -8.928368 28.235794 -8.184631 40.46176 1.945221c12.225952 10.129852 19.304062 28.068527 18.512589 46.91815" fill-rule="evenodd"/><path stroke="#ffffff" stroke-width="8.0" stroke-linejoin="round" stroke-linecap="butt" d="m169.66873 118.284355l0 0c0.27682495 -18.874367 8.350296 -36.084618 21.115967 -45.012978c12.7656555 -8.928368 28.235794 -8.184631 40.46176 1.945221c12.225952 10.129852 19.304062 28.068527 18.512589 46.91815" fill-rule="evenodd"/><path fill="#000000" fill-opacity="0.0" d="m116.58586 174.5791l0 0c-0.27683258 18.87436 -8.350304 36.08461 -21.115967 45.01297c-12.7656555 8.92836 -28.235794 8.184631 -40.461754 -1.945221c-12.22596 -10.129852 -19.304062 -28.068527 -18.5126 -46.91815l40.018894 2.8526306z" fill-rule="evenodd"/><path fill="#000000" fill-opacity="0.0" d="m116.58586 174.5791l0 0c-0.27683258 18.87436 -8.350304 36.08461 -21.115967 45.01297c-12.7656555 8.92836 -28.235794 8.184631 -40.461754 -1.945221c-12.22596 -10.129852 -19.304062 -28.068527 -18.5126 -46.91815" fill-rule="evenodd"/><path stroke="#0095b6" stroke-width="8.0" stroke-linejoin="round" stroke-linecap="butt" d="m116.58586 174.5791l0 0c-0.27683258 18.87436 -8.350304 36.08461 -21.115967 45.01297c-12.7656555 8.92836 -28.235794 8.184631 -40.461754 -1.945221c-12.22596 -10.129852 -19.304062 -28.068527 -18.5126 -46.91815" fill-rule="evenodd"/></g></svg>